<?xml version="1.0" encoding="UTF-8"?>
<svg width="136px" height="122px" viewBox="0 0 136 122" version="1.1" xmlns="http://www.w3.org/2000/svg" xmlns:xlink="http://www.w3.org/1999/xlink">
    <!-- Generator: Sketch 52 (66869) - http://www.bohemiancoding.com/sketch -->
    <title>Shape</title>
    <desc>Created with Sketch.</desc>
    <g id="Desktop" stroke="none" stroke-width="1" fill="none" fill-rule="evenodd">
        <g id="09_02_404" transform="translate(-573.000000, -240.000000)" fill="#E8E8E8" fill-rule="nonzero">
            <g id="warning" transform="translate(573.000000, 240.000000)">
                <path d="M134.521739,108.669951 L75.9826087,4.6955665 C72.7304348,-1.22889984 63.8608696,-1.22889984 60.6086957,4.6955665 L1.77391304,108.669951 C-1.47826087,114.594417 2.66086957,122 9.46086957,122 L126.834783,122 C133.634783,122 137.773913,114.594417 134.521739,108.669951 Z M74.2086957,36.0952381 L73.026087,79.936289 L62.973913,79.936289 L61.7913043,36.0952381 L74.2086957,36.0952381 Z M73.026087,99.7832512 C71.8434783,100.968144 70.0695652,101.560591 68,101.560591 C65.9304348,101.560591 64.1565217,100.968144 62.973913,99.7832512 C61.7913043,98.598358 61.2,97.1172414 61.2,95.3399015 C61.2,93.5625616 61.7913043,92.081445 62.973913,90.8965517 C64.1565217,89.7116585 65.9304348,89.1192118 68,89.1192118 C70.0695652,89.1192118 71.8434783,89.7116585 73.026087,90.8965517 C74.2086957,92.081445 74.8,93.5625616 74.8,95.3399015 C74.8,97.1172414 74.2086957,98.598358 73.026087,99.7832512 Z" id="Shape"></path>
            </g>
        </g>
    </g>
</svg>